<mxfile host="65bd71144e">
    <diagram id="1i1ILcZZahqwfYhfNuIS" name="ページ1">
        <mxGraphModel dx="479" dy="1059" grid="1" gridSize="10" guides="1" tooltips="1" connect="1" arrows="1" fold="1" page="1" pageScale="1" pageWidth="827" pageHeight="1169" math="0" shadow="0">
            <root>
                <mxCell id="0"/>
                <mxCell id="1" parent="0"/>
                <mxCell id="2" value="&lt;font style=&quot;font-size: 16px;&quot;&gt;&lt;b&gt;オブジェクト図とは&lt;/b&gt;&lt;/font&gt;&lt;div&gt;&lt;br data-end=&quot;14&quot; data-start=&quot;11&quot;&gt;&lt;br&gt;&lt;div&gt;「ドメインモデル図（クラス図）」のインスタンス（具体例）を図示したもの&lt;/div&gt;&lt;/div&gt;" style="text;html=1;align=left;verticalAlign=middle;resizable=0;points=[];autosize=1;strokeColor=none;fillColor=none;labelBorderColor=none;" parent="1" vertex="1">
                    <mxGeometry x="40" y="30" width="430" height="80" as="geometry"/>
                </mxCell>
                <mxCell id="57" style="edgeStyle=orthogonalEdgeStyle;shape=connector;curved=0;rounded=0;html=1;entryX=0;entryY=0.5;entryDx=0;entryDy=0;strokeColor=#FF0000;align=center;verticalAlign=middle;fontFamily=Helvetica;fontSize=11;fontColor=#FF0000;labelBackgroundColor=default;endArrow=none;endFill=0;" edge="1" parent="1" source="9" target="32">
                    <mxGeometry relative="1" as="geometry">
                        <Array as="points">
                            <mxPoint x="450" y="535"/>
                            <mxPoint x="450" y="520"/>
                            <mxPoint x="500" y="520"/>
                        </Array>
                    </mxGeometry>
                </mxCell>
                <mxCell id="59" value="" style="edgeStyle=orthogonalEdgeStyle;shape=connector;curved=0;rounded=0;html=1;strokeColor=#FF0000;align=center;verticalAlign=middle;fontFamily=Helvetica;fontSize=11;fontColor=#FF0000;labelBackgroundColor=default;endArrow=none;endFill=0;" edge="1" parent="1" source="9" target="38">
                    <mxGeometry relative="1" as="geometry"/>
                </mxCell>
                <mxCell id="9" value="&lt;div style=&quot;&quot;&gt;&lt;u style=&quot;background-color: transparent;&quot;&gt;&lt;b&gt;ユーザー&lt;/b&gt;&lt;/u&gt;&lt;/div&gt;&lt;div&gt;&lt;b&gt;&lt;u&gt;&lt;br&gt;&lt;/u&gt;&lt;/b&gt;&lt;/div&gt;&lt;div style=&quot;text-align: left;&quot;&gt;・山田　太郎&lt;/div&gt;&lt;div style=&quot;text-align: left;&quot;&gt;・test123/67&lt;br&gt;・taro@example.com&lt;br&gt;・test.png&lt;/div&gt;&lt;div style=&quot;text-align: left;&quot;&gt;・&lt;span style=&quot;color: rgb(63, 63, 63); font-size: 11px; text-wrap-mode: wrap;&quot;&gt;user&amp;nbsp;&lt;br&gt;&lt;/span&gt;・&lt;span style=&quot;color: rgb(63, 63, 63); text-wrap-mode: wrap;&quot;&gt;React、TypeScript&lt;/span&gt;&lt;br&gt;&lt;br&gt;&lt;/div&gt;&lt;div&gt;&lt;div&gt;&lt;u&gt;&lt;b&gt;&lt;br&gt;&lt;/b&gt;&lt;/u&gt;&lt;/div&gt;&lt;div&gt;&lt;u&gt;&lt;b&gt;&lt;br&gt;&lt;/b&gt;&lt;/u&gt;&lt;/div&gt;&lt;/div&gt;" style="rounded=1;html=1;verticalAlign=top;align=center;fillColor=#ffe6cc;strokeColor=#d79b00;" parent="1" vertex="1">
                    <mxGeometry x="240" y="470" width="160" height="130" as="geometry"/>
                </mxCell>
                <mxCell id="42" style="edgeStyle=orthogonalEdgeStyle;shape=connector;rounded=1;html=1;entryX=0;entryY=0.5;entryDx=0;entryDy=0;strokeColor=#FF0000;align=center;verticalAlign=middle;fontFamily=Helvetica;fontSize=11;fontColor=#FF0000;labelBackgroundColor=default;endArrow=classic;endFill=1;exitX=1;exitY=0.5;exitDx=0;exitDy=0;" parent="1" source="13" target="15" edge="1">
                    <mxGeometry relative="1" as="geometry">
                        <mxPoint x="550" y="420" as="sourcePoint"/>
                        <mxPoint x="667" y="470" as="targetPoint"/>
                        <Array as="points">
                            <mxPoint x="667" y="355"/>
                            <mxPoint x="667" y="450"/>
                        </Array>
                    </mxGeometry>
                </mxCell>
                <mxCell id="13" value="&lt;div style=&quot;&quot;&gt;&lt;b&gt;&lt;u&gt;タスク&lt;/u&gt;&lt;/b&gt;&lt;/div&gt;&lt;div&gt;&lt;b&gt;&lt;u&gt;&lt;br&gt;&lt;/u&gt;&lt;/b&gt;&lt;/div&gt;&lt;div style=&quot;text-align: left;&quot;&gt;・⚪︎&lt;span style=&quot;color: rgb(63, 63, 63); background-color: transparent;&quot;&gt;⚪︎&lt;/span&gt;&lt;span style=&quot;background-color: transparent;&quot;&gt;開発&lt;/span&gt;&lt;/div&gt;&lt;div style=&quot;text-align: left;&quot;&gt;・〜〜〜〜〜&lt;br&gt;・未着手&lt;br&gt;・&lt;br&gt;・&lt;/div&gt;" style="rounded=1;whiteSpace=wrap;html=1;verticalAlign=top;align=center;fillColor=#ffe6cc;strokeColor=#d79b00;labelBackgroundColor=none;arcSize=24;" parent="1" vertex="1">
                    <mxGeometry x="500" y="290" width="140" height="130" as="geometry"/>
                </mxCell>
                <mxCell id="14" value="&lt;div style=&quot;&quot;&gt;&lt;b&gt;&lt;u&gt;ブログ&lt;/u&gt;&lt;/b&gt;&lt;/div&gt;&lt;div&gt;&lt;br&gt;&lt;/div&gt;&lt;div&gt;&lt;div style=&quot;text-align: left;&quot;&gt;・⚪︎⚪︎を開発してみた&lt;br&gt;・React、TypeScript&lt;br&gt;・実績&lt;br&gt;・~~~~~~~&lt;br&gt;・&lt;span style=&quot;color: rgb(63, 63, 63); background-color: transparent;&quot;&gt;2022/10/01 09:30&lt;/span&gt;&lt;/div&gt;&lt;/div&gt;&lt;div style=&quot;text-align: left;&quot;&gt;・test.png&lt;/div&gt;" style="rounded=1;whiteSpace=wrap;html=1;verticalAlign=top;align=center;fillColor=#ffe6cc;strokeColor=#d79b00;textShadow=0;arcSize=33;" parent="1" vertex="1">
                    <mxGeometry x="504" y="600" width="140" height="180" as="geometry"/>
                </mxCell>
                <mxCell id="15" value="&lt;div style=&quot;&quot;&gt;&lt;b&gt;&lt;u&gt;通知先&lt;/u&gt;&lt;/b&gt;&lt;/div&gt;&lt;div&gt;&lt;b&gt;&lt;u&gt;&lt;br&gt;&lt;/u&gt;&lt;/b&gt;&lt;/div&gt;&lt;div&gt;&lt;div style=&quot;text-align: left;&quot;&gt;・Slack&lt;br&gt;・＠yamada&lt;/div&gt;&lt;/div&gt;" style="rounded=1;whiteSpace=wrap;html=1;verticalAlign=top;align=center;fillColor=#ffe6cc;strokeColor=#d79b00;" parent="1" vertex="1">
                    <mxGeometry x="720" y="410" width="107" height="80" as="geometry"/>
                </mxCell>
                <mxCell id="43" style="edgeStyle=orthogonalEdgeStyle;shape=connector;rounded=1;html=1;entryX=0;entryY=0.5;entryDx=0;entryDy=0;strokeColor=#FF0000;align=center;verticalAlign=middle;fontFamily=Helvetica;fontSize=11;fontColor=#FF0000;labelBackgroundColor=default;endArrow=classic;endFill=0;" parent="1" source="32" target="15" edge="1">
                    <mxGeometry relative="1" as="geometry">
                        <Array as="points">
                            <mxPoint x="664" y="515"/>
                            <mxPoint x="664" y="450"/>
                        </Array>
                    </mxGeometry>
                </mxCell>
                <mxCell id="32" value="&lt;div style=&quot;&quot;&gt;&lt;b&gt;&lt;u&gt;タスク&lt;/u&gt;&lt;/b&gt;&lt;/div&gt;&lt;div&gt;&lt;b&gt;&lt;u&gt;&lt;br&gt;&lt;/u&gt;&lt;/b&gt;&lt;/div&gt;&lt;div style=&quot;text-align: left;&quot;&gt;・⚪︎&lt;span style=&quot;color: rgb(63, 63, 63); background-color: transparent;&quot;&gt;⚪︎&lt;/span&gt;&lt;span style=&quot;background-color: transparent;&quot;&gt;開発&lt;/span&gt;&lt;/div&gt;&lt;div style=&quot;text-align: left;&quot;&gt;・〜〜〜〜〜&lt;br&gt;・完了&lt;br&gt;・2022/10/01 09:30&lt;br&gt;・&lt;span style=&quot;color: rgb(63, 63, 63); background-color: transparent;&quot;&gt;2022/10/01 10:30&lt;/span&gt;&lt;/div&gt;&lt;div&gt;&lt;div&gt;&lt;u&gt;&lt;b&gt;&lt;br&gt;&lt;/b&gt;&lt;/u&gt;&lt;/div&gt;&lt;/div&gt;" style="rounded=1;whiteSpace=wrap;html=1;verticalAlign=top;align=center;fillColor=#ffe6cc;strokeColor=#d79b00;labelBackgroundColor=none;arcSize=24;" parent="1" vertex="1">
                    <mxGeometry x="500" y="450" width="140" height="130" as="geometry"/>
                </mxCell>
                <mxCell id="35" style="edgeStyle=orthogonalEdgeStyle;shape=connector;rounded=0;html=1;entryX=0;entryY=0.5;entryDx=0;entryDy=0;strokeColor=#FF0000;align=center;verticalAlign=middle;fontFamily=Helvetica;fontSize=11;fontColor=#FF0000;labelBackgroundColor=default;endArrow=none;endFill=0;curved=0;" parent="1" source="9" target="14" edge="1">
                    <mxGeometry relative="1" as="geometry">
                        <Array as="points">
                            <mxPoint x="450" y="535"/>
                            <mxPoint x="450" y="690"/>
                        </Array>
                    </mxGeometry>
                </mxCell>
                <mxCell id="37" style="edgeStyle=orthogonalEdgeStyle;shape=connector;rounded=1;html=1;entryX=0.5;entryY=1;entryDx=0;entryDy=0;strokeColor=#00CC00;align=center;verticalAlign=middle;fontFamily=Helvetica;fontSize=11;fontColor=#FF0000;labelBackgroundColor=default;endArrow=none;endFill=0;" parent="1" source="36" target="14" edge="1">
                    <mxGeometry relative="1" as="geometry"/>
                </mxCell>
                <mxCell id="50" style="edgeStyle=orthogonalEdgeStyle;shape=connector;rounded=1;html=1;entryX=0;entryY=0.5;entryDx=0;entryDy=0;strokeColor=#00CC00;align=center;verticalAlign=middle;fontFamily=Helvetica;fontSize=11;fontColor=#FF0000;labelBackgroundColor=default;endArrow=none;endFill=0;" parent="1" source="36" target="9" edge="1">
                    <mxGeometry relative="1" as="geometry">
                        <Array as="points">
                            <mxPoint x="170" y="525"/>
                        </Array>
                    </mxGeometry>
                </mxCell>
                <mxCell id="36" value="&lt;div style=&quot;text-align: center;&quot;&gt;&lt;u style=&quot;background-color: transparent;&quot;&gt;&lt;b&gt;VO (Image)&lt;/b&gt;&lt;/u&gt;&lt;/div&gt;&lt;div style=&quot;text-align: center;&quot;&gt;&lt;b&gt;&lt;u&gt;&lt;br&gt;&lt;/u&gt;&lt;/b&gt;&lt;/div&gt;&lt;div style=&quot;&quot;&gt;・&lt;span style=&quot;background-color: transparent;&quot;&gt;fileName = &quot;trip2024.png&quot;&lt;/span&gt;&lt;/div&gt;&lt;div style=&quot;&quot;&gt;&lt;span style=&quot;background-color: transparent;&quot;&gt;・url = &quot;https://example.com/&lt;/span&gt;&lt;/div&gt;&lt;div style=&quot;&quot;&gt;&lt;span style=&quot;background-color: transparent;&quot;&gt;uploads/trip2024.png&quot;&lt;/span&gt;&lt;/div&gt;&lt;div style=&quot;&quot;&gt;・size = &quot;250KB&quot;&lt;/div&gt;" style="rounded=1;html=1;verticalAlign=top;align=left;fillColor=#d5e8d4;strokeColor=#82b366;horizontal=1;" parent="1" vertex="1">
                    <mxGeometry x="90" y="770" width="160" height="130" as="geometry"/>
                </mxCell>
                <mxCell id="39" style="edgeStyle=none;shape=connector;rounded=1;html=1;strokeColor=#FF0000;align=center;verticalAlign=middle;fontFamily=Helvetica;fontSize=11;fontColor=#FF0000;labelBackgroundColor=default;endArrow=none;endFill=0;" parent="1" source="38" target="9" edge="1">
                    <mxGeometry relative="1" as="geometry"/>
                </mxCell>
                <mxCell id="52" style="edgeStyle=none;html=1;endArrow=none;endFill=0;strokeColor=#FF0000;" edge="1" parent="1" source="38" target="13">
                    <mxGeometry relative="1" as="geometry"/>
                </mxCell>
                <mxCell id="38" value="&lt;div style=&quot;&quot;&gt;&lt;u style=&quot;background-color: transparent;&quot;&gt;&lt;b&gt;ユーザー&lt;/b&gt;&lt;/u&gt;&lt;/div&gt;&lt;div&gt;&lt;b&gt;&lt;u&gt;&lt;br&gt;&lt;/u&gt;&lt;/b&gt;&lt;/div&gt;&lt;div style=&quot;text-align: left;&quot;&gt;・&lt;span style=&quot;background-color: transparent; text-align: center;&quot;&gt;鈴木 次郎&lt;/span&gt;&lt;/div&gt;&lt;div style=&quot;text-align: left;&quot;&gt;・test123/67&lt;br&gt;・taro@example.com&lt;/div&gt;&lt;div style=&quot;text-align: left;&quot;&gt;・admin&lt;br&gt;&lt;br&gt;&lt;/div&gt;&lt;div&gt;&lt;div&gt;&lt;u&gt;&lt;b&gt;&lt;br&gt;&lt;/b&gt;&lt;/u&gt;&lt;/div&gt;&lt;div&gt;&lt;u&gt;&lt;b&gt;&lt;br&gt;&lt;/b&gt;&lt;/u&gt;&lt;/div&gt;&lt;/div&gt;" style="rounded=1;html=1;verticalAlign=top;align=center;fillColor=#ffe6cc;strokeColor=#d79b00;" parent="1" vertex="1">
                    <mxGeometry x="240" y="290" width="160" height="130" as="geometry"/>
                </mxCell>
                <mxCell id="41" style="edgeStyle=orthogonalEdgeStyle;shape=connector;rounded=1;html=1;strokeColor=#3399FF;align=center;verticalAlign=middle;fontFamily=Helvetica;fontSize=11;fontColor=#FF0000;labelBackgroundColor=default;endArrow=none;endFill=0;" parent="1" source="40" edge="1">
                    <mxGeometry relative="1" as="geometry">
                        <mxPoint x="504" y="700" as="targetPoint"/>
                        <Array as="points">
                            <mxPoint x="504" y="700"/>
                        </Array>
                    </mxGeometry>
                </mxCell>
                <mxCell id="40" value="&lt;div style=&quot;&quot;&gt;&lt;u style=&quot;background-color: transparent;&quot;&gt;&lt;b&gt;ユーザー&lt;/b&gt;&lt;/u&gt;&lt;/div&gt;&lt;div&gt;&lt;b&gt;&lt;u&gt;&lt;br&gt;&lt;/u&gt;&lt;/b&gt;&lt;/div&gt;&lt;div style=&quot;text-align: left;&quot;&gt;・非会員&lt;span style=&quot;font-size: 11px; text-wrap-mode: wrap; background-color: transparent;&quot;&gt;&amp;nbsp;&lt;/span&gt;&lt;/div&gt;&lt;div style=&quot;text-align: left;&quot;&gt;&lt;br&gt;&lt;/div&gt;&lt;div&gt;&lt;div&gt;&lt;u&gt;&lt;b&gt;&lt;br&gt;&lt;/b&gt;&lt;/u&gt;&lt;/div&gt;&lt;div&gt;&lt;u&gt;&lt;b&gt;&lt;br&gt;&lt;/b&gt;&lt;/u&gt;&lt;/div&gt;&lt;/div&gt;" style="rounded=1;html=1;verticalAlign=top;align=center;fillColor=#ffe6cc;strokeColor=#d79b00;" parent="1" vertex="1">
                    <mxGeometry x="240" y="625" width="160" height="130" as="geometry"/>
                </mxCell>
                <mxCell id="47" style="shape=connector;rounded=1;html=1;strokeColor=#FF0000;align=center;verticalAlign=middle;fontFamily=Helvetica;fontSize=11;fontColor=#FF0000;labelBackgroundColor=default;endArrow=none;endFill=0;" parent="1" source="44" edge="1">
                    <mxGeometry relative="1" as="geometry">
                        <mxPoint x="680" y="450" as="targetPoint"/>
                    </mxGeometry>
                </mxCell>
                <mxCell id="44" value="&lt;font&gt;タスク作成/編集時に&lt;br&gt;通知を飛ばす&lt;/font&gt;" style="shape=note;whiteSpace=wrap;html=1;backgroundOutline=1;darkOpacity=0.05;fontFamily=Helvetica;fontSize=12;labelBackgroundColor=none;fillColor=#f8cecc;strokeColor=#b85450;size=9;" parent="1" vertex="1">
                    <mxGeometry x="690" y="320" width="130" height="50" as="geometry"/>
                </mxCell>
                <mxCell id="49" style="rounded=1;html=1;strokeColor=#3399FF;align=center;verticalAlign=middle;fontFamily=Helvetica;fontSize=11;fontColor=#FF0000;labelBackgroundColor=default;endArrow=none;endFill=0;exitX=0.787;exitY=-0.044;exitDx=0;exitDy=0;exitPerimeter=0;" parent="1" source="48" edge="1">
                    <mxGeometry relative="1" as="geometry">
                        <mxPoint x="410" y="700" as="targetPoint"/>
                        <mxPoint x="400" y="770" as="sourcePoint"/>
                    </mxGeometry>
                </mxCell>
                <mxCell id="48" value="投稿者以外は&lt;br&gt;記事閲覧のみ" style="shape=note;whiteSpace=wrap;html=1;backgroundOutline=1;darkOpacity=0.05;fontFamily=Helvetica;fontSize=12;labelBackgroundColor=none;fillColor=#dae8fc;strokeColor=#6c8ebf;size=9;" parent="1" vertex="1">
                    <mxGeometry x="330" y="770" width="110" height="40" as="geometry"/>
                </mxCell>
                <mxCell id="58" value="&lt;div style=&quot;&quot;&gt;&lt;b&gt;&lt;u&gt;ブログ&lt;/u&gt;&lt;/b&gt;&lt;/div&gt;&lt;div&gt;&lt;br&gt;&lt;/div&gt;&lt;div&gt;&lt;div style=&quot;text-align: left;&quot;&gt;・⚪︎⚪︎を開発してみた&lt;br&gt;・React、TypeScript&lt;br&gt;・実績&lt;br&gt;・~~~~~~~&lt;br&gt;・&lt;span style=&quot;color: rgb(63, 63, 63); background-color: transparent;&quot;&gt;2022/10/01 09:30&lt;/span&gt;&lt;/div&gt;&lt;/div&gt;&lt;div style=&quot;text-align: left;&quot;&gt;・test.png&lt;/div&gt;" style="rounded=1;whiteSpace=wrap;html=1;verticalAlign=top;align=center;fillColor=#ffe6cc;strokeColor=#d79b00;textShadow=0;arcSize=33;" vertex="1" parent="1">
                    <mxGeometry x="500" y="90" width="140" height="180" as="geometry"/>
                </mxCell>
                <mxCell id="60" style="edgeStyle=orthogonalEdgeStyle;shape=connector;curved=0;rounded=0;html=1;entryX=0;entryY=0.561;entryDx=0;entryDy=0;entryPerimeter=0;strokeColor=#FF0000;align=center;verticalAlign=middle;fontFamily=Helvetica;fontSize=11;fontColor=#FF0000;labelBackgroundColor=default;endArrow=none;endFill=0;" edge="1" parent="1" source="38" target="58">
                    <mxGeometry relative="1" as="geometry">
                        <Array as="points">
                            <mxPoint x="320" y="191"/>
                        </Array>
                    </mxGeometry>
                </mxCell>
                <mxCell id="65" style="edgeStyle=orthogonalEdgeStyle;shape=connector;curved=0;rounded=0;html=1;entryX=0.005;entryY=0.382;entryDx=0;entryDy=0;entryPerimeter=0;strokeColor=#3399FF;align=center;verticalAlign=middle;fontFamily=Helvetica;fontSize=11;fontColor=#FF0000;labelBackgroundColor=default;endArrow=none;endFill=0;" edge="1" parent="1" source="38" target="14">
                    <mxGeometry relative="1" as="geometry">
                        <Array as="points">
                            <mxPoint x="440" y="370"/>
                            <mxPoint x="440" y="700"/>
                            <mxPoint x="505" y="700"/>
                        </Array>
                    </mxGeometry>
                </mxCell>
                <mxCell id="68" style="edgeStyle=orthogonalEdgeStyle;shape=connector;curved=0;rounded=0;html=1;entryX=-0.012;entryY=0.641;entryDx=0;entryDy=0;entryPerimeter=0;strokeColor=#3399FF;align=center;verticalAlign=middle;fontFamily=Helvetica;fontSize=11;fontColor=#FF0000;labelBackgroundColor=default;endArrow=none;endFill=0;" edge="1" parent="1" source="9" target="58">
                    <mxGeometry relative="1" as="geometry">
                        <Array as="points">
                            <mxPoint x="440" y="520"/>
                            <mxPoint x="440" y="205"/>
                        </Array>
                    </mxGeometry>
                </mxCell>
                <mxCell id="69" value="管理者は一般ユーザー情報の閲覧、編集可" style="shape=note;whiteSpace=wrap;html=1;backgroundOutline=1;darkOpacity=0.05;fontFamily=Helvetica;fontSize=12;labelBackgroundColor=none;fillColor=#f8cecc;strokeColor=#b85450;size=9;" vertex="1" parent="1">
                    <mxGeometry x="70" y="370" width="130" height="50" as="geometry"/>
                </mxCell>
                <mxCell id="70" style="shape=connector;rounded=0;html=1;strokeColor=#FF0000;align=center;verticalAlign=middle;fontFamily=Helvetica;fontSize=11;fontColor=#FF0000;labelBackgroundColor=default;endArrow=none;endFill=0;" edge="1" parent="1" source="69">
                    <mxGeometry relative="1" as="geometry">
                        <mxPoint x="320" y="450" as="targetPoint"/>
                    </mxGeometry>
                </mxCell>
            </root>
        </mxGraphModel>
    </diagram>
</mxfile>